<svg width="56" height="56" viewBox="0 0 56 56" fill="none" xmlns="http://www.w3.org/2000/svg">
<rect width="56" height="56" rx="10" fill="#7B61FF"/>
<path fill-rule="evenodd" clip-rule="evenodd" d="M20 22C20 21.4477 20.4477 21 21 21H35C35.5523 21 36 21.4477 36 22C36 22.5523 35.5523 23 35 23H21C20.4477 23 20 22.5523 20 22ZM20 28C20 27.4477 20.4477 27 21 27H35C35.5523 27 36 27.4477 36 28C36 28.5523 35.5523 29 35 29H21C20.4477 29 20 28.5523 20 28ZM20 34C20 33.4477 20.4477 33 21 33H35C35.5523 33 36 33.4477 36 34C36 34.5523 35.5523 35 35 35H21C20.4477 35 20 34.5523 20 34Z" fill="white"/>
</svg>
