<svg width="14" height="14" viewBox="0 0 14 14" fill="none" xmlns="http://www.w3.org/2000/svg">
<path d="M13.0666 7.88463C13.5084 7.88071 13.8758 7.51948 13.8873 7.07781C13.8987 6.63613 13.5498 6.28125 13.108 6.28517L8.11237 6.32947L8.15436 1.38936C8.15812 0.947547 7.80333 0.573906 7.36191 0.554809C6.9205 0.535711 6.55961 0.878388 6.55586 1.3202L6.51315 6.34365L1.54531 6.3877C1.1035 6.39162 0.736081 6.75285 0.724652 7.19453C0.713224 7.63621 1.06212 7.99108 1.50393 7.98717L6.49956 7.94287L6.45756 12.8829C6.45381 13.3247 6.8086 13.6984 7.25001 13.7175C7.69143 13.7366 8.05231 13.3939 8.05607 12.9521L8.09877 7.92869L13.0666 7.88463Z" fill="#AFB2B6"/>
</svg>
